<?xml version="1.0" encoding="UTF-8" standalone="no"?>
<svg
   width="241.81169"
   height="236.34033"
   viewBox="0 0 241.81169 236.34033"
   version="1.1"
   id="svg1"
   sodipodi:docname="logo.svg"
   inkscape:version="1.4.3 (0d15f75042, 2025-12-25)"
   xmlns:inkscape="http://www.inkscape.org/namespaces/inkscape"
   xmlns:sodipodi="http://sodipodi.sourceforge.net/DTD/sodipodi-0.dtd"
   xmlns="http://www.w3.org/2000/svg"
   xmlns:svg="http://www.w3.org/2000/svg">
  <defs
     id="defs2">
    <defs
       class="defs"
       id="defs1" />
  </defs>
  <sodipodi:namedview
     id="namedview1"
     pagecolor="#ffffff"
     bordercolor="#666666"
     borderopacity="1.0"
     inkscape:showpageshadow="2"
     inkscape:pageopacity="0.0"
     inkscape:pagecheckerboard="0"
     inkscape:deskcolor="#d1d1d1"
     inkscape:zoom="2.376"
     inkscape:cx="246.21212"
     inkscape:cy="250.84175"
     inkscape:window-width="2560"
     inkscape:window-height="1371"
     inkscape:window-x="0"
     inkscape:window-y="0"
     inkscape:window-maximized="1"
     inkscape:current-layer="svg1" />
  <path
     d="m 228.71255,153.09332 c -2.65986,7.77051 -11.11101,11.91246 -18.88152,9.2526 -6.06542,-2.07678 -9.92163,-7.68688 -10.05172,-13.74533 l -47.91002,-15.60374 c -4.96895,10.09586 -14.23781,17.68749 -25.41619,20.39149 l 5.63101,51.06701 c 5.8122,1.42633 10.42108,6.30004 11.2109,12.59078 1.01981,8.14684 -4.75522,15.58051 -12.90206,16.60032 -8.14684,1.01981 -15.58052,-4.75523 -16.60265,-12.90207 -0.80841,-6.44406 2.63896,-12.43746 8.14684,-15.16933 l -5.63797,-51.12973 c -12.92995,-0.36239 -24.259333,-7.10845 -30.947313,-17.20431 l -39.20333,18.74215 c 2.44382,10.23988 -2.44846,21.15809 -12.31434,25.93422 -11.39443,5.51254 -25.1025801,0.74337 -30.6151199,-10.65106 -5.51253,-11.39442 -0.74336,-25.09561 10.6510599,-30.60814 9.76367,-4.72271 21.21849,-1.89326 27.76709,6.17692 l 39.26605,-18.77235 c -3.56119,-10.84155 -3.71451,-23.96895 7.2037,-36.829201 l -36.75255,-41.39394 c -5.86795,2.49957 -12.916,1.00587 -17.22288,-4.13963 -5.27094,-6.29771 -4.4393,-15.67343 1.85841,-20.94437 6.29539,-5.27094 15.67344,-4.43697 20.94205,1.85842 3.93056,4.69483 4.46485,11.10405 1.87236,16.2449 l 36.87566,41.531 c 14.776753,-10.14697 33.261043,-8.17937 45.566093,1.59127 L 190.687,38.087439 c -5.39871,-8.92505 -4.15124,-20.70278 3.65411,-28.2804804 9.07837,-8.82050997 23.58797,-8.60912 32.40849,0.4715804 8.82052,9.08069 8.60912,23.59029 -0.47157,32.41081 -7.8402,7.61487 -19.72479,8.49297 -28.50581,2.74349 l -49.43857,47.89143 c 8.47206,11.510581 8.41863,21.367161 6.76929,29.997191 l 47.97041,15.62233 c 3.81208,-4.72271 10.30958,-6.80646 16.38661,-4.72735 7.76818,2.65754 11.91013,11.10869 9.25259,18.87688 z"
     fill="#000000"
     class="fill c1"
     id="path1"
     style="stroke-width:2.32302" />
  <ellipse
     style="fill:#37c8ab;stroke:#6e6e6e;stroke-width:0.650079"
     id="path2"
     cx="128.48164"
     cy="220.23247"
     rx="16.624578"
     ry="15.782828" />
  <ellipse
     style="fill:#00d400;stroke:#6e6e6e;stroke-width:0.650079"
     id="path3"
     cx="24.946251"
     cy="161.73079"
     rx="24.621212"
     ry="25.042088" />
  <ellipse
     style="fill:#ffff00;stroke:#6e6e6e;stroke-width:0.650079"
     id="path4"
     cx="46.200462"
     cy="36.941216"
     rx="21.043772"
     ry="19.36027" />
  <ellipse
     style="fill:#ff8080;stroke:#6e6e6e;stroke-width:0.650079"
     id="path5"
     cx="216.44456"
     cy="23.894062"
     rx="25.042088"
     ry="23.569023" />
  <ellipse
     style="fill:#0000ff;stroke:#6e6e6e;stroke-width:0.650079"
     id="path6"
     cx="216.65501"
     cy="146.1584"
     rx="19.781145"
     ry="17.46633" />
  <ellipse
     style="fill:#ff00ff;stroke:#6e6e6e;stroke-width:0.635762"
     id="path7"
     cx="117.74929"
     cy="115.0136"
     rx="41.252953"
     ry="38.938137" />
</svg>
